<?xml version="1.0" encoding="utf-8"?>
<!-- Generator: Adobe Illustrator 16.0.0, SVG Export Plug-In . SVG Version: 6.00 Build 0)  -->
<!DOCTYPE svg PUBLIC "-//W3C//DTD SVG 1.1//EN" "http://www.w3.org/Graphics/SVG/1.1/DTD/svg11.dtd">
<svg version="1.1" id="Mascot" xmlns="http://www.w3.org/2000/svg" xmlns:xlink="http://www.w3.org/1999/xlink" x="0px" y="0px"
	 width="500px" height="500px" viewBox="0 0 500 500" enable-background="new 0 0 500 500" xml:space="preserve">
<g>
	<path fill-rule="evenodd" clip-rule="evenodd" fill="#FF0000" d="M250.053,169.977c12.639-6.317,27.971-9.762,42-10.977
		l15.768-1.372c17.269-1.487,34.551-0.576,51.84-0.576h9.482v9.48c0,42.098,0,84.206,0,126.309v4.839
		c0,43.462-35.54,79.002-79.017,79.002H130.859v-219.63h9.476c17.31,0,34.527-1.135,51.833,0.206l15.764,1.192
		C222.905,159.576,236.615,163.208,250.053,169.977"/>
	<path fill-rule="evenodd" clip-rule="evenodd" fill="#414141" d="M308.641,160.51c-3.013-29.6-28.025-52.661-58.394-52.661
		c-30.356,0-55.356,22.864-58.797,52.292l15.767,1.202c2.786-21.253,20.902-37.686,42.97-37.686
		c22.059,0,40.332,16.712,42.684,38.211L308.641,160.51z"/>
	<path fill-rule="evenodd" clip-rule="evenodd" fill="#414141" d="M275.644,304.381c-6.869,7.264-13.731,14.533-20.599,21.81
		l-5.051,5.354l-5.045-5.354c-6.868-7.264-13.73-14.546-20.597-21.81l-3.557-3.775l2.596-4.483
		c5.511-9.499,15.813-14.609,26.603-14.609c10.8,0,21.094,5.11,26.605,14.609l2.603,4.483L275.644,304.381z"/>
	<path fill-rule="evenodd" clip-rule="evenodd" fill="#FCF5AE" d="M270.586,299.615c-6.853,7.271-13.729,14.533-20.592,21.808
		c-6.862-7.274-13.73-14.537-20.596-21.808c4.337-7.477,12.477-11.17,20.596-11.157
		C258.115,288.445,266.254,292.139,270.586,299.615"/>
	<path fill-rule="evenodd" clip-rule="evenodd" fill="#414141" d="M198.532,193.884c30.765,0,55.714,24.965,55.714,55.713
		c0,30.764-24.95,55.717-55.714,55.717c-30.767,0-55.705-24.953-55.705-55.717C142.827,218.849,167.765,193.884,198.532,193.884"/>
	<path fill-rule="evenodd" clip-rule="evenodd" fill="#E7E6E6" d="M198.532,203.363c25.534,0,46.239,20.708,46.239,46.234
		c0,25.529-20.705,46.236-46.239,46.236c-25.541,0-46.235-20.707-46.235-46.236C152.297,224.071,172.991,203.363,198.532,203.363"/>
	<path fill-rule="evenodd" clip-rule="evenodd" fill="#414141" d="M301.459,193.884c30.771,0,55.709,24.965,55.709,55.713
		c0,30.764-24.938,55.717-55.709,55.717c-30.765,0-55.716-24.941-55.716-55.717C245.743,218.849,270.694,193.884,301.459,193.884"/>
	<path fill-rule="evenodd" clip-rule="evenodd" fill="#E7E6E6" d="M301.459,203.363c25.533,0,46.239,20.708,46.239,46.234
		c0,25.529-20.706,46.236-46.239,46.236c-25.532,0-46.232-20.707-46.232-46.236C255.227,224.071,275.927,203.363,301.459,203.363"/>
	<path fill-rule="evenodd" clip-rule="evenodd" fill="#414141" d="M204.343,220.846c16.49,0,29.867,13.369,29.867,29.841
		c0,16.501-13.377,29.868-29.867,29.868c-16.5,0-29.865-13.367-29.865-29.868c0-5.495,1.496-10.644,4.091-15.071
		c2.133,5.272,7.29,8.973,13.336,8.973c7.939,0,14.386-6.424,14.386-14.369c0-3.576-1.305-6.838-3.452-9.343
		C203.335,220.846,203.844,220.846,204.343,220.846"/>
	<path fill-rule="evenodd" clip-rule="evenodd" fill="#414141" d="M295.638,220.846c16.505,0,29.874,13.369,29.874,29.841
		c0,16.501-13.369,29.868-29.874,29.868c-16.483,0-29.852-13.367-29.852-29.868c0-5.495,1.487-10.644,4.077-15.071
		c2.142,5.272,7.309,8.973,13.348,8.973c7.941,0,14.378-6.424,14.378-14.369c0-3.576-1.291-6.838-3.446-9.343
		C294.646,220.846,295.139,220.846,295.638,220.846"/>
</g>
</svg>
